<svg width="820" height="820" viewBox="0 0 820 820" fill="none" xmlns="http://www.w3.org/2000/svg">
  <defs>
    <g id="beeGlyph" fill="#F4B400">
      <rect x="-6" y="-6" width="34" height="12" rx="6" transform="rotate(-45)"/>
      <rect x="-28" y="-6" width="34" height="12" rx="6" transform="rotate(45)"/>
      <rect x="-6" y="-1" width="12" height="30" rx="6"/>
    </g>
  </defs>

  <!-- flying bees -->
  <g transform="translate(250 146)">
    <use href="#beeGlyph"/>
  </g>
  <g transform="translate(158 294)">
    <use href="#beeGlyph"/>
  </g>
  <g transform="translate(630 224)">
    <use href="#beeGlyph"/>
  </g>

  <!-- hook -->
  <path fill-rule="evenodd" clip-rule="evenodd"
    d="M381 110H439C447.837 110 455 117.163 455 126V130L429 189H391L365 130V126C365 117.163 372.163 110 381 110ZM396 124H424L417 189H403L396 124Z"
    fill="#9A7720"/>

  <!-- top dome -->
  <path d="M254 294C271 228 332 184 410 184C488 184 549 228 566 294H254Z" fill="#F4B400"/>

  <!-- body bands -->
  <rect x="218" y="311" width="384" height="74" rx="37" fill="#F4B400"/>
  <rect x="221" y="405" width="378" height="72" rx="36" fill="#F4B400"/>
  <rect x="228" y="497" width="364" height="70" rx="35" fill="#F4B400"/>
  <rect x="248" y="588" width="324" height="70" rx="35" fill="#F4B400"/>

  <!-- entrance -->
  <circle cx="410" cy="533" r="28" fill="#7A5C16"/>

  <!-- bottom dome -->
  <path d="M302 677H518C496 719 460 741 410 741C360 741 324 719 302 677Z" fill="#F4B400"/>
</svg>