<svg
   xmlns:dc="http://purl.org/dc/elements/1.1/"
   xmlns:cc="http://creativecommons.org/ns#"
   xmlns:rdf="http://www.w3.org/1999/02/22-rdf-syntax-ns#"
   xmlns:svg="http://www.w3.org/2000/svg"
   xmlns="http://www.w3.org/2000/svg"
   viewBox="0 0 377.93332 146.25333"
   height="146.25333"
   width="377.93332"
   xml:space="preserve"
   id="svg2"
   version="1.1">
  <metadata id="metadata8">
    <rdf:RDF>
      <cc:Work rdf:about="">
        <dc:format>image/svg+xml</dc:format>
        <dc:type rdf:resource="http://purl.org/dc/dcmitype/StillImage" />
      </cc:Work>
    </rdf:RDF>
  </metadata>
  <defs id="defs6" />
  <g transform="matrix(1.3333333,0,0,-1.3333333,0,146.25333)" id="g10">
    <g transform="scale(0.1)" id="g12">
      <path id="path14" style="fill:rgb(92,85,80);fill-opacity:1;fill-rule:nonzero;stroke:none" d="m 1054.84,282.176 h 130.25 v -37.942 h -85.83 V 219.48 h 77.73 v -35.398 h -77.73 v -25.68 h 86.99 v -38.175 h -131.41 v 161.949" />
      <path id="path16" style="fill:rgb(92,85,80);fill-opacity:1;fill-rule:nonzero;stroke:none" d="m 1220.9,191.336 v 90.922 h 45.34 v -89.996 c 0,-23.367 11.8,-34.473 29.84,-34.473 18.28,0 30.08,10.641 30.08,33.313 v 91.156 h 45.35 v -89.766 c 0,-52.054 -29.85,-75.187 -75.89,-75.187 -45.81,0 -74.72,23.359 -74.72,74.031" />
      <path id="path18" style="fill:rgb(92,85,80);fill-opacity:1;fill-rule:nonzero;stroke:none" d="m 1670.41,200.477 v 0.461 c 0,23.597 -16.66,43.726 -41.42,43.726 -24.75,0 -41.18,-19.898 -41.18,-43.266 v -0.46 c 0,-23.368 16.89,-43.723 41.65,-43.723 24.52,0 40.95,19.894 40.95,43.262 z m -128.4,0 v 0.461 c 0,46.503 37.48,84.214 87.45,84.214 49.97,0 86.99,-37.25 86.99,-83.754 v -0.46 c 0,-46.5 -37.48,-84.211 -87.46,-84.211 -49.97,0 -86.98,37.246 -86.98,83.75" />
      <path id="path20" style="fill:rgb(92,85,80);fill-opacity:1;fill-rule:nonzero;stroke:none" d="m 1739.6,282.176 h 47.42 l 38.64,-62.696 38.63,62.696 h 47.43 V 120.227 h -44.65 v 93.007 l -41.41,-63.39 h -0.93 l -41.18,63.16 v -92.777 h -43.95 v 161.949" />
      <path id="path22" style="fill:rgb(92,85,80);fill-opacity:1;fill-rule:nonzero;stroke:none" d="m 2035.62,183.887 -17.92,45.496 -18.16,-45.496 z m -39.06,98.351 h 42.97 l 68.48,-162.011 h -47.8 l -11.49,28.953 h -62.27 l -11.49,-28.953 h -46.66 l 68.26,162.011" />
      <path id="path24" style="fill:rgb(92,85,80);fill-opacity:1;fill-rule:nonzero;stroke:none" d="m 2109.78,144.027 24.99,29.844 c 16.19,-12.726 33.78,-19.433 52.52,-19.433 12.26,0 18.74,4.164 18.74,11.101 v 0.465 c 0,6.941 -5.33,10.41 -27.54,15.734 -34.47,7.864 -61.07,17.582 -61.07,50.664 v 0.465 c 0,30.074 23.83,51.821 62.69,51.821 27.53,0 49.05,-7.399 66.63,-21.516 l -22.44,-31.695 c -14.8,10.64 -31,15.964 -45.34,15.964 -10.88,0 -16.2,-4.398 -16.2,-10.414 v -0.461 c 0,-7.402 5.55,-10.64 28.23,-15.73 37.01,-8.098 60.15,-20.129 60.15,-50.434 v -0.464 c 0,-33.086 -26.14,-52.747 -65.47,-52.747 -28.69,0 -55.76,9.02 -75.89,26.836" />
      <path id="path26" style="fill:rgb(92,85,80);fill-opacity:1;fill-rule:nonzero;stroke:none" d="m 2307.82,242.848 h -48.35 v 39.328 h 141.82 v -39.328 h -48.58 V 120.227 h -44.89 v 122.621" />
      <path id="path28" style="fill:rgb(92,85,80);fill-opacity:1;fill-rule:nonzero;stroke:none" d="m 2420.96,282.176 h 130.26 v -37.942 h -85.84 V 219.48 h 77.74 v -35.398 h -77.74 v -25.68 h 86.99 v -38.175 h -131.41 v 161.949" />
      <path id="path30" style="fill:rgb(92,85,80);fill-opacity:1;fill-rule:nonzero;stroke:none" d="m 1440.5,243.598 h 12.47 c 14.81,0 24.29,-6.481 24.29,-19.438 v -0.461 c 0,-11.801 -9.02,-19.199 -24.06,-19.199 h -12.7 z m 96.47,-112.399 -36.58,51.91 c 13.45,9.395 21.76,23.797 21.76,43.598 v 0.465 c 0,15.961 -4.86,28.223 -14.35,37.711 -10.87,10.875 -27.99,17.347 -52.75,17.347 h -59.43 V 120.285 h 44.88 v 77.399 l 57.94,-84.481 38.53,17.996" />
      <path id="path32" style="fill:rgb(92,85,80);fill-opacity:1;fill-rule:nonzero;stroke:none" d="m 2619.34,243.598 h 12.47 c 14.81,0 24.29,-6.481 24.29,-19.438 v -0.461 c 0,-11.801 -9.02,-19.199 -24.06,-19.199 h -12.7 z m 96.47,-112.399 -36.58,51.91 c 13.45,9.395 21.76,23.797 21.76,43.598 v 0.465 c 0,15.961 -4.86,28.223 -14.35,37.711 -10.87,10.875 -27.99,17.347 -52.75,17.347 h -59.43 V 120.285 h 44.88 v 77.399 l 57.94,-84.481 38.53,17.996" />

      <path id="path34" style="fill:none;fill-opacity:0;fill-rule:nonzero;stroke:none" d="M 976.906,120.227 V 977.172 H 119.969 V 120.227 h 856.937" />

      <path id="path36" style="fill:rgb(92,85,80);fill-opacity:1;fill-rule:nonzero;stroke:none" d="m 564.008,315.414 c 116.297,7.965 209.07,100.785 217.32,216.813 l 158.996,0.082 C 931.957,328.41 767.965,164.703 564.008,156.379 v 159.035" />
      <path id="path38" style="fill:rgb(92,85,80);fill-opacity:1;fill-rule:nonzero;stroke:none" d="m 528.758,315.414 c -116.11,7.965 -208.996,100.785 -216.996,216.813 l -159.211,0.082 C 160.984,328.41 324.836,164.703 528.758,156.379 v 159.035" />
      <path id="path40" style="fill:rgb(92,85,80);fill-opacity:1;fill-rule:nonzero;stroke:none" d="m 564.008,784.164 c 116.297,-7.883 209.07,-100.769 217.32,-216.879 H 940.324 C 931.957,771.09 767.965,934.879 564.008,943.137 V 784.164" />

      <path id="path42" style="fill:none;fill-opacity:0;fill-rule:nonzero;stroke:none" d="M 522.809,574.414 V 977.16 H 120.063 V 574.414 h 402.746" />

      <path id="path44" style="fill:rgb(92,85,80);fill-opacity:1;fill-rule:nonzero;stroke:none" d="m 207.496,604.637 35.973,45.562 -34.176,83.395 -35.797,-45.785 34,-83.172" />
      <path id="path46" style="fill:rgb(92,85,80);fill-opacity:1;fill-rule:nonzero;stroke:none" d="m 292.113,783.766 55.289,18.004 17.95,88.355 -55.465,-18.242 -17.774,-88.117" />
      <path id="path48" style="fill:rgb(92,85,80);fill-opacity:1;fill-rule:nonzero;stroke:none" d="m 233.992,703.746 49,31.207 -4.738,90.07 -49.035,-31.429 4.773,-89.848" />
      <path id="path50" style="fill:rgb(92,85,80);fill-opacity:1;fill-rule:nonzero;stroke:none" d="m 367.648,844.836 58.239,0.641 43.511,78.867 -58.308,-0.785 -43.442,-78.723" />
      <path id="path52" style="fill:rgb(92,85,80);fill-opacity:1;fill-rule:nonzero;stroke:none" d="m 374.543,816.27 52.848,24.406 73.093,-52.746 -52.992,-24.184 -72.949,52.524" />
      <path id="path54" style="fill:rgb(92,85,80);fill-opacity:1;fill-rule:nonzero;stroke:none" d="m 257.574,680.992 28.656,50.602 90.25,-0.145 -28.933,-50.523 -89.973,0.066" />
      <path id="path56" style="fill:rgb(92,85,80);fill-opacity:1;fill-rule:nonzero;stroke:none" d="m 235.641,591.434 10.879,57.199 85.445,28.996 -11.024,-57.133 -85.3,-29.062" />
      <path id="path58" style="fill:rgb(92,85,80);fill-opacity:1;fill-rule:nonzero;stroke:none" d="m 305.754,758.434 42.867,39.175 85.805,-27.91 -43.223,-39.191 -85.449,27.926" />

      <path id="path60" style="fill:rgb(92,85,80);fill-opacity:1;fill-rule:nonzero;stroke:none" d="m 1456.58,608.57 -67.26,170.739 -68.11,-170.739 z m -146.59,369.063 h 161.25 l 256.96,-607.91 h -179.35 l -43.12,108.644 H 1272.05 L 1228.94,369.723 H 1053.9 l 256.09,607.91" />
      <path id="path62" style="fill:rgb(92,85,80);fill-opacity:1;fill-rule:nonzero;stroke:none" d="m 1822.65,829.973 h -181.5 v 147.621 h 532.33 V 829.973 h -182.37 v -460.25 h -168.46 v 460.25" />
      <path id="path64" style="fill:rgb(92,85,80);fill-opacity:1;fill-rule:nonzero;stroke:none" d="m 2185.4,459.156 92.88,110.938 c 60.19,-47.297 125.55,-72.242 195.2,-72.242 45.58,0 69.66,15.48 69.66,41.281 v 1.719 c 0,25.796 -19.78,38.703 -102.33,58.48 -128.14,29.234 -227.03,65.356 -227.03,188.328 v 1.719 c 0,111.797 88.57,192.633 233.05,192.633 102.33,0 182.31,-27.52 247.66,-79.977 l -83.41,-117.812 c -55.04,39.554 -115.23,59.332 -168.55,59.332 -40.42,0 -60.2,-16.332 -60.2,-38.696 v -1.718 c 0,-27.52 20.64,-39.559 104.91,-58.477 137.6,-30.098 223.59,-74.82 223.59,-187.469 v -1.722 c 0,-122.973 -97.17,-196.067 -243.36,-196.067 -106.64,0 -207.25,33.539 -282.07,99.75" />
    </g>
  </g>
</svg>