<svg xmlns="http://www.w3.org/2000/svg" viewBox="0 0 145 65" shape-rendering="geometricPrecision">
  <g transform="translate(0 8)" fill="rgb(234, 230, 224)">
    <path d="M92.1704782,14.5702648 C94.7650728,11.8757637 98.2577963,10.4786151 101.950104,10.4786151 L101.950104,10.4786151 C105.642412,10.4786151 109.135135,11.9755601 111.72973,14.6700611 C114.324324,17.3645621 115.821206,20.8574338 115.821206,24.6496945 C115.821206,28.4419552 114.324324,31.9348269 111.72973,34.6293279 C109.135135,37.3238289 105.642412,38.7209776 101.950104,38.7209776 L101.950104,38.7209776 C98.2577963,38.7209776 94.7650728,37.2240326 92.1704782,34.5295316 C89.5758836,31.8350305 88.0790021,28.3421589 88.0790021,24.5498982 C88.1787942,20.7576375 89.5758836,17.2647658 92.1704782,14.5702648 L92.1704782,14.5702648 Z M122.607069,37.0244399 L122.806653,36.7250509 C124.902287,33.0325866 126,28.8411405 126,24.5498982 C126,11.0773931 115.222453,-2.13162821e-14 102.049896,-2.13162821e-14 L102.049896,-2.13162821e-14 C88.7775468,-2.13162821e-14 78,10.9775967 78,24.4501018 C78,30.9368635 80.4948025,37.1242363 84.985447,41.814664 C89.4760915,46.5050916 95.5634096,49 101.950104,49 L101.950104,49 C106.141372,49 110.232848,47.9022403 113.925156,45.706721 L115.222453,47.1038697 C117.517672,49.4989817 121.409563,49.4989817 123.704782,47.1038697 L123.804574,47.0040733 C125.002079,45.8065173 125.600832,44.3095723 125.600832,42.6130346 C125.600832,40.9164969 125.002079,39.4195519 123.804574,38.2219959 L122.607069,37.0244399 Z"/>
    <path d="M69.0504202,12 C70.6638655,12 72.0756303,11.394958 73.1848739,10.2857143 C74.394958,9.07563025 75,7.66386555 75,6.05042017 C75,4.43697479 74.394958,2.92436975 73.2857143,1.81512605 C72.0756303,0.605042017 70.6638655,-2.13162821e-14 69.0504202,-2.13162821e-14 C67.3361345,-2.13162821e-14 65.9243697,0.605042017 64.7142857,1.71428571 C63.605042,2.82352941 63,4.33613445 63,6.05042017 C63,7.66386555 63.605042,9.17647059 64.8151261,10.2857143 C66.0252101,11.394958 67.4369748,12 69.0504202,12"/>
    <path d="M69,13 C72.3137085,13 75,15.6862915 75,19 L75,41 C75,44.3137085 72.3137085,47 69,47 C65.6862915,47 63,44.3137085 63,41 L63,19 C63,15.6862915 65.6862915,13 69,13 Z"/>
    <path d="M31,41.5 C31,44.5375661 28.5375661,47 25.5,47 C22.4624339,47 20,44.5375661 20,41.5 L20,6.5 C20,3.46243388 22.4624339,1 25.5,1 C28.5375661,1 31,3.46243388 31,6.5 L31,18 L49,18 L49,6.5 C49,3.46243388 51.4624339,1 54.5,1 C57.5375661,1 60,3.46243388 60,6.5 L60,41.5 C60,44.5375661 57.5375661,47 54.5,47 C51.4624339,47 49,44.5375661 49,41.5 L49,29 L31,29 L31,41.5 Z"/>
  </g>
</svg>