<svg xmlns="http://www.w3.org/2000/svg" xmlns:xlink="http://www.w3.org/1999/xlink" width="271" height="118" viewBox="0 0 271 118">
  <defs>
    <clipPath id="clip-NTAHalfordsLogRevised">
      <rect width="271" height="118"/>
    </clipPath>
  </defs>
  <g id="NTAHalfordsLogRevised" clip-path="url(#clip-NTAHalfordsLogRevised)">
    <g id="NTAHalfordsLogo_1_" data-name="NTAHalfordsLogo (1)" transform="translate(1 11.7)">
      <g id="Layer_1-2" data-name="Layer 1-2">
        <path id="Path_1" data-name="Path 1" d="M17.13,22.89h13.9l2.09,10.97c.07.44.31,1.89.71,4.32.39-1.85.86-3.32,1.22-4.52L38.4,22.89H50.56L42.72,48.31H28.93l-2.52-9.77c-.11-.44-.47-1.82-.98-4.14a39.5,39.5,0,0,1-1.1,4.28l-3.01,9.63H9.29l7.83-25.42h.01Z" fill="rgb(92, 85, 80)"/>
        <path id="Path_2" data-name="Path 2" d="M62.22,22.76H82.91l-.06,25.55H70.7l.03-3.7H60.96l-2.48,3.7H44.69L62.27,22.76h-.05Zm8.94,16.92V28.87L64.61,39.68Z" fill="rgb(92, 85, 80)"/>
        <path id="Path_3" data-name="Path 3" d="M216.77,22.76h20.69l-.06,25.55H225.25l.04-3.7h-9.8l-2.48,3.7H199.22L216.8,22.76h-.03Zm8.94,16.92V28.87l-6.52,10.81Z" fill="rgb(92, 85, 80)"/>
        <path id="Path_4" data-name="Path 4" d="M100.1,48.3H87.54l5.79-18.76H84.62l2.69-6.87h28.12l-2.17,6.87h-7.87L100.1,48.3Z" fill="rgb(92, 85, 80)"/>
        <path id="Path_5" data-name="Path 5" d="M118.13,22.87h12.6L122.9,48.3H110.3l7.83-25.43Z" fill="rgb(92, 85, 80)"/>
        <path id="Path_6" data-name="Path 6" d="M172.14,22.89h13.9l2.09,10.99c.08.44.32,1.89.71,4.32.4-1.85.87-3.32,1.22-4.52l3.35-10.78h12.17l-7.83,25.42H183.96l-2.52-9.77c-.12-.44-.47-1.82-.98-4.14a39.5,39.5,0,0,1-1.1,4.28l-3.03,9.62H164.32l7.85-25.41h-.03Z" fill="rgb(92, 85, 80)"/>
        <path id="Path_7" data-name="Path 7" d="M130.27,43.64c-3.32-6.66,1.68-15.4,11.16-19.54s19.84-2.08,23.15,4.6-1.69,15.4-11.16,19.54-19.84,2.07-23.15-4.6Zm22.12-5.59c1.69-4.09,1.05-8.23-1.44-9.26s-5.87,1.45-7.56,5.53-1.05,8.23,1.44,9.26,5.87-1.45,7.56-5.53Z" fill="rgb(92, 85, 80)"/>
        <path id="Path_8" data-name="Path 8" d="M247.46,22.96h12.56l-5.7,19.31H266.3l-2.15,6.13H239.63l7.83-25.44Z" fill="rgb(92, 85, 80)"/>

        <path id="Path_9" data-name="Path 9" d="M257.33,71.83H2.27L8.26,53.48H263.32Z" fill="none"/>

        <path id="Path_10" data-name="Path 10" d="M43.41,60.15H41.05l.4-2.29h7.46l-.4,2.29H46.25l-1.29,7.61H42.12l1.29-7.61Z" fill="rgb(92, 85, 80)"/>
        <path id="Path_11" data-name="Path 11" d="M52.14,63.34l-2.97-5.48h3.14l1.15,2.53c.11.25.25.57.39.97a7.178,7.178,0,0,1,.5-1l1.87-2.5h3.25l-4.5,5.51-.74,4.39H51.4l.74-4.41h0Z" fill="rgb(92, 85, 80)"/>
        <path id="Path_12" data-name="Path 12" d="M63.1,62.38l.44-2.6h.41c1.18,0,1.76.33,1.76,1.2s-.6,1.4-1.72,1.4H63.1Zm-.9,5.37.64-3.78,2.03,3.78h3.22l-2.58-3.91a3.105,3.105,0,0,0,2.94-3.1,2.583,2.583,0,0,0-1.63-2.52,7.285,7.285,0,0,0-2.97-.37h-2.8l-1.67,9.9H62.2Z" fill="rgb(92, 85, 80)"/>
        <path id="Path_13" data-name="Path 13" d="M76.66,65.56l-.36,2.2H70.21l1.67-9.9h6.08l-.38,2.28H74.32l-.27,1.62h3.03l-.36,2.15H73.68l-.28,1.65Z" fill="rgb(92, 85, 80)"/>
        <path id="Path_14" data-name="Path 14" d="M82.74,65.63c.75,0,1.19-.37,1.19-.89s-.57-.8-1.5-1.26c-1.39-.68-2.17-1.29-2.17-2.53,0-1.94,1.53-3.33,3.8-3.33a5.088,5.088,0,0,1,3.21,1.15l-1.21,1.95a3.226,3.226,0,0,0-1.9-.9c-.6,0-1.03.36-1.03.8,0,.54.75.74,1.69,1.24,1.36.71,1.97,1.37,1.97,2.66,0,2.07-1.6,3.5-4.38,3.5a4.748,4.748,0,0,1-3.64-1.67l1.46-1.98a3.533,3.533,0,0,0,2.51,1.28h0v-.02Z" fill="rgb(92, 85, 80)"/>
        <path id="Path_15" data-name="Path 15" d="M98.35,63.69l1.15-2.3c.07-.16.24-.57.48-1.15a7.373,7.373,0,0,0,.14,1.15l.49,2.3Zm-5.14,4.06h3.07l1.01-1.87h3.69l.43,1.87h2.87l-2.24-9.9H98.52l-5.29,9.9h-.02Z" fill="rgb(92, 85, 80)"/>
        <path id="Path_16" data-name="Path 16" d="M107.56,57.86h3.22l2.23,4.89a8.556,8.556,0,0,1,.61,1.62v-.25a8.193,8.193,0,0,1,.13-1.4l.81-4.86h2.82l-1.67,9.9h-3.1l-2.36-5.04a8.592,8.592,0,0,1-.62-1.62v.3a8.942,8.942,0,0,1-.12,1.37l-.79,5.01H105.9l1.67-9.9v-.02h0Z" fill="rgb(92, 85, 80)"/>
        <path id="Path_17" data-name="Path 17" d="M122.18,65.56l.9-5.51h.53c1.86,0,2.71.68,2.71,2.39,0,2.05-1.18,3.14-3.45,3.14h-.69Zm-3.21,2.2h2.44c2.35,0,4.1,0,5.52-.95a4.825,4.825,0,0,0,2.24-4.31,4.282,4.282,0,0,0-2.41-4.17,11.055,11.055,0,0,0-4.31-.47h-1.82l-1.66,9.9Z" fill="rgb(92, 85, 80)"/>
        <path id="Path_18" data-name="Path 18" d="M140.72,63.69l1.15-2.3c.07-.16.24-.57.47-1.15a7.389,7.389,0,0,0,.15,1.15l.48,2.3h-2.25Zm-5.14,4.06h3.08l1-1.87h3.7l.43,1.87h2.87l-2.25-9.9h-3.53l-5.29,9.9h0Z" fill="rgb(92, 85, 80)"/>
        <path id="Path_19" data-name="Path 19" d="M152.63,57.86l-.84,4.97a8.976,8.976,0,0,0-.18,1.45,1.278,1.278,0,0,0,1.21,1.35h.24c1.66,0,1.86-1.36,2.33-4.17l.61-3.6h2.83l-.94,5.62a7.079,7.079,0,0,1-.78,2.59,4.651,4.651,0,0,1-4.21,1.98c-2.52,0-4.16-1.23-4.16-3.1a21.207,21.207,0,0,1,.34-2.87l.72-4.22h2.83Z" fill="rgb(92, 85, 80)"/>
        <path id="Path_20" data-name="Path 20" d="M163.08,60.15h-2.37l.4-2.29h7.47l-.41,2.29h-2.25l-1.29,7.61h-2.84l1.29-7.61Z" fill="rgb(92, 85, 80)"/>
        <path id="Path_21" data-name="Path 21" d="M175.73,60.06a2.415,2.415,0,0,1,2.55,2.27v.17a3.048,3.048,0,0,1-2.99,3.1h-.05a2.376,2.376,0,0,1-2.57-2.16v-.32a2.992,2.992,0,0,1,2.94-3.04h.11v-.02h.01Zm-.64,7.96a6.149,6.149,0,0,0,4.69-1.94,5.518,5.518,0,0,0,1.46-3.82c0-2.71-2.11-4.6-5.32-4.6a6.176,6.176,0,0,0-4.7,1.93,5.555,5.555,0,0,0-1.45,3.82,4.465,4.465,0,0,0,1.61,3.45,5.691,5.691,0,0,0,3.71,1.15v.02h0Z" fill="rgb(92, 85, 80)"/>
        <path id="Path_22" data-name="Path 22" d="M192.21,61.06a4.4,4.4,0,0,0-2.8-1,2.917,2.917,0,0,0-3.01,2.82v.22c0,1.59.98,2.52,2.73,2.52a6.425,6.425,0,0,0,2.41-.51l-.44,2.56a9.512,9.512,0,0,1-2.6.33c-3.04,0-4.97-1.92-4.97-4.79a5.677,5.677,0,0,1,1.37-3.72,5.907,5.907,0,0,1,4.63-1.87,7.367,7.367,0,0,1,3.16.71l-.48,2.73h0Z" fill="rgb(92, 85, 80)"/>
        <path id="Path_23" data-name="Path 23" d="M197.84,63.69l1.12-2.3c.07-.16.24-.57.48-1.15a7.373,7.373,0,0,0,.14,1.15l.49,2.3Zm-5.14,4.06h3.07l1.01-1.87h3.69l.43,1.87h2.87l-2.24-9.9H198l-5.29,9.9h0Z" fill="rgb(92, 85, 80)"/>
        <path id="Path_24" data-name="Path 24" d="M209.09,62.38l.44-2.6h.41c1.18,0,1.76.33,1.76,1.2s-.6,1.4-1.72,1.4h-.89Zm-.9,5.37.64-3.78,2.04,3.78h3.22l-2.57-3.91a3.105,3.105,0,0,0,2.94-3.1,2.583,2.583,0,0,0-1.63-2.52,7.285,7.285,0,0,0-2.97-.37h-2.8l-1.67,9.9h2.8Z" fill="rgb(92, 85, 80)"/>
        <path id="Path_25" data-name="Path 25" d="M222.65,65.56l-.37,2.2H216.2l1.66-9.9h6.09l-.38,2.28H220.3l-.26,1.62h3.02l-.36,2.15h-3.04l-.27,1.65Z" fill="rgb(92, 85, 80)"/>
      </g>
    </g>
  </g>
</svg>