<svg width="154" height="54" viewBox="0 0 154 54" fill="none" xmlns="http://www.w3.org/2000/svg">
  <g fill="rgb(234, 230, 224)">
    <path fill-rule="evenodd" clip-rule="evenodd" d="M39.9786 20.5943C39.9202 18.7515 41.1156 14.7354 44.3308 15.0309C45.0984 15.0998 45.3666 16.1386 45.2805 16.6461C45.1941 17.1537 44.7155 17.4776 44.1747 17.8815C43.6348 18.2855 43.4319 18.5382 43.3093 19.0741C44.3172 19.2274 45.2606 19.9061 45.3522 21.4744C45.4426 23.018 44.0489 24.2592 42.6414 24.1154C40.4537 23.8927 40.0367 22.3868 39.9786 20.5943"/>
    <path fill-rule="evenodd" clip-rule="evenodd" d="M69.9393 18.5714C69.9986 20.4142 68.8034 24.4307 65.5871 24.1351C64.8204 24.0663 64.5522 23.0274 64.6386 22.52C64.7247 22.0125 65.2031 21.6879 65.7443 21.2846C66.2842 20.8807 66.486 20.6278 66.6085 20.0915C65.6007 19.9381 64.6573 19.26 64.5657 17.6917C64.475 16.1477 65.8701 14.9068 67.2765 15.0502C69.465 15.2735 69.8821 16.7792 69.9393 18.5714Z"/>
    <path fill-rule="evenodd" clip-rule="evenodd" d="M46.3452 33.1964V20.0288C46.0186 15.4702 50.7503 15.0004 51.5306 18.6466C56.4839 13.6683 63.7319 16.6932 63.6052 23.377V33.077C63.6052 37.2777 58.1608 37.9534 58.0367 33.2673L57.9672 24.467C57.9222 18.7449 51.9902 20.7988 51.9676 24.8688L51.9217 33.1964C51.8977 37.7097 46.3368 37.451 46.3452 33.1964Z"/>
    <path fill-rule="evenodd" clip-rule="evenodd" d="M84.1606 9.28696C91.9876 9.33181 96.4331 14.9107 96.4788 22.6845C96.5267 30.686 92.0131 36.5597 84.1606 36.517C75.8539 36.4712 71.3385 30.8698 71.3792 22.6845C71.4186 14.5527 75.9767 9.23985 84.1606 9.28696ZM90.3928 22.7251C90.3928 19.2013 88.8011 14.4762 84.114 14.4324C79.246 14.3865 77.4847 18.7866 77.4847 22.5895C77.4847 26.8404 78.9985 31.4994 84.1606 31.4026C88.9459 31.3117 90.3928 26.3018 90.3928 22.7251"/>
    <path fill-rule="evenodd" clip-rule="evenodd" d="M127.728 33.1753V15.0859H119.593V27.2422C120.159 39.353 97.7775 41.1185 97.9838 26.2489V12.2102C98.2322 8.05963 103.975 8.51372 104.135 12.2102V27.0675C103.975 32.3511 113.291 33.3559 113.535 26.8297C113.535 21.8773 113.628 17.0197 113.628 12.0681C113.638 10.7601 114.584 9.37458 116.323 9.35004L140.667 9.3264L140.655 5.98487L146.53 12.3908L140.609 18.5692V15.0389H133.841V33.1753C133.726 37.6391 127.772 37.528 127.728 33.1753Z"/>
    <path fill-rule="evenodd" clip-rule="evenodd" d="M37.3434 12.26C37.3434 8.12163 31.7834 8.41495 31.7834 11.9863L31.6453 25.7441L22.2325 11.0806C20.1647 7.85331 15.5586 9.11053 15.7938 13.1923V33.6623C16.01 37.6017 21.4826 38.2802 21.4826 33.4488L21.4795 20.0316L30.8731 34.6885C32.7476 37.4284 37.3185 37.1058 37.3402 33.3207C37.3402 26.3009 37.3434 19.2798 37.3434 12.26"/>
    <path fill-rule="evenodd" clip-rule="evenodd" d="M38.2259 48.4803L38.2966 44.7497L12.0704 44.7863C8.53778 44.6675 6.97971 42.5579 6.97971 39.8748C6.97971 30.8238 6.97852 21.6308 6.97852 12.5812C6.97852 8.08481 12.9597 8.2092 12.9597 12.7222C12.9597 20.7936 12.9006 29.6093 12.9659 37.7362C12.969 38.2056 13.02 38.8636 14.077 38.9053L38.2259 39.0475L38.2716 35.8492L44.1945 42.1124L38.2259 48.4803Z"/>
    <path fill-rule="evenodd" clip-rule="evenodd" d="M50.1216 41.9797L48.9972 45.5321H51.2511L50.1216 41.9797H50.1216ZM48.1827 48.1308C48.116 48.3446 48.0163 48.5005 47.8854 48.6032C47.7532 48.705 47.5816 48.755 47.3723 48.755C47.1341 48.755 46.9408 48.6867 46.792 48.5487C46.6433 48.4099 46.5674 48.2282 46.5674 48.0014C46.5674 47.9257 46.5734 47.8511 46.587 47.7793C46.5994 47.7079 46.6203 47.6352 46.6505 47.559L48.8942 41.0788C49.0221 40.7061 49.1646 40.4644 49.3227 40.3566C49.4808 40.2494 49.7481 40.1954 50.1215 40.1954C50.4772 40.1954 50.7352 40.2467 50.8955 40.3491C51.0556 40.4505 51.2022 40.6868 51.3345 41.0567L53.6198 47.559C53.6499 47.6352 53.6707 47.7079 53.6843 47.7793C53.6977 47.8511 53.7028 47.9257 53.7028 48.0014C53.7028 48.2229 53.6271 48.4067 53.4774 48.5456C53.3274 48.6867 53.1289 48.755 52.8886 48.755C52.6814 48.755 52.5141 48.705 52.384 48.6041C52.2517 48.5038 52.1542 48.3488 52.0886 48.1308L51.7028 46.9342H48.5561L48.1827 48.1308ZM56.1037 41.1123C56.1037 40.8032 56.1745 40.5722 56.3118 40.4219C56.448 40.2711 56.6581 40.1954 56.9399 40.1954C57.2179 40.1954 57.4289 40.2746 57.5714 40.4261C57.7139 40.579 57.7867 40.8064 57.7867 41.1123V45.517C57.7867 46.1626 57.9105 46.6347 58.1601 46.9298C58.411 47.2268 58.8082 47.3754 59.3532 47.3754C59.9055 47.3754 60.3062 47.229 60.5577 46.9342C60.8094 46.6391 60.9365 46.1666 60.9365 45.517V41.1123C60.9365 40.8032 61.0062 40.5722 61.1434 40.4219C61.2808 40.2711 61.4888 40.1954 61.7698 40.1954C62.0485 40.1954 62.2575 40.2746 62.3979 40.4261C62.5373 40.579 62.608 40.8064 62.608 41.1123V45.7051C62.608 46.7278 62.328 47.5142 61.7718 48.0614C61.2141 48.6084 60.4132 48.8835 59.3668 48.8835C58.311 48.8835 57.5049 48.6109 56.9451 48.0646C56.3847 47.5186 56.1038 46.7322 56.1038 45.7051V41.1123H56.1037ZM65.8379 41.7961C65.5633 41.7961 65.3583 41.7359 65.2242 41.6144C65.0908 41.4947 65.0234 41.3109 65.0234 41.065C65.0234 40.8193 65.093 40.6346 65.2303 40.5116C65.3676 40.3857 65.5705 40.3234 65.8379 40.3234H70.8912C71.1625 40.3234 71.3663 40.3857 71.5036 40.5116C71.6389 40.6346 71.7066 40.8193 71.7066 41.065C71.7066 41.3074 71.6389 41.4894 71.5036 41.6123C71.3663 41.7341 71.1625 41.7961 70.8912 41.7961H69.1998V47.8422C69.1998 48.1481 69.131 48.3788 68.9937 48.5305C68.8555 48.6802 68.6475 48.755 68.3686 48.755C68.0876 48.755 67.8787 48.678 67.7383 48.5261C67.5989 48.3723 67.5303 48.1447 67.5303 47.8422V41.7961H65.8379H65.8379ZM77.7688 41.5877C77.0573 41.5877 76.5029 41.8409 76.1066 42.3476C75.7092 42.8518 75.5104 43.5655 75.5104 44.4881C75.5104 45.4056 75.7092 46.1174 76.1066 46.6263C76.5029 47.1337 77.0573 47.3874 77.7688 47.3874C78.4906 47.3874 79.0483 47.1337 79.4497 46.6263C79.8502 46.1174 80.0498 45.4056 80.0498 44.4881C80.0498 43.5699 79.8502 42.8571 79.4497 42.3498C79.0483 41.8409 78.4906 41.5877 77.7688 41.5877ZM77.7688 40.0905C78.9815 40.0905 79.9481 40.4881 80.6657 41.2809C81.3836 42.075 81.7434 43.1415 81.7434 44.4881C81.7434 45.8303 81.3836 46.8998 80.6657 47.694C79.9481 48.4878 78.9815 48.8835 77.7688 48.8835C76.5538 48.8835 75.5875 48.4878 74.8751 47.6961C74.1626 46.9063 73.8066 45.8344 73.8066 44.4881C73.8066 43.1362 74.1626 42.0654 74.8751 41.2744C75.5875 40.4858 76.5538 40.0905 77.7688 40.0905ZM84.2295 44.6108C84.2295 43.1843 84.5737 42.0729 85.2603 41.2744C85.9477 40.4784 86.9058 40.0799 88.1373 40.0799C88.622 40.0799 89.0662 40.1481 89.473 40.2851C89.8789 40.4196 90.2634 40.6325 90.6276 40.9238C90.8793 41.1185 91.0738 41.3388 91.2163 41.5856C91.3608 41.8324 91.4319 42.0695 91.4319 42.2962C91.4319 42.5462 91.3608 42.7451 91.2163 42.8945C91.0738 43.0433 90.8825 43.1192 90.6389 43.1192C90.5038 43.1192 90.3737 43.0892 90.249 43.0334C90.1282 42.9781 90.0053 42.8906 89.885 42.773C89.8214 42.713 89.753 42.6201 89.679 42.4936C89.603 42.371 89.548 42.2897 89.5148 42.2513C89.3391 42.0398 89.1285 41.8817 88.8873 41.7789C88.6449 41.6741 88.366 41.623 88.0541 41.623C87.3968 41.623 86.8809 41.8748 86.5024 42.3794C86.1236 42.8862 85.9333 43.5851 85.9333 44.4762C85.9333 45.3845 86.1236 46.0877 86.5032 46.5836C86.8839 47.0814 87.426 47.3283 88.1278 47.3283C88.435 47.3283 88.7127 47.2781 88.9593 47.1789C89.2035 47.0796 89.4041 46.9342 89.5594 46.748C89.6206 46.6669 89.6842 46.5684 89.7455 46.4497C89.81 46.3315 89.8519 46.2563 89.8735 46.2278C90.0129 46.0416 90.1409 45.9136 90.2593 45.8439C90.3758 45.7747 90.5088 45.7394 90.6619 45.7394C90.8865 45.7394 91.0759 45.8151 91.2322 45.9659C91.3878 46.1174 91.4658 46.3015 91.4658 46.515C91.4658 46.7278 91.3955 46.9598 91.258 47.2116C91.1207 47.4663 90.9386 47.6982 90.7106 47.9096C90.3363 48.2484 89.9359 48.4964 89.5125 48.6514C89.0874 48.8064 88.594 48.8835 88.0325 48.8835C86.8518 48.8835 85.924 48.5026 85.2459 47.7428C84.5665 46.9808 84.2295 45.938 84.2295 44.6108M99.7752 47.1198C100.079 47.1198 100.304 47.1842 100.455 47.3104C100.607 47.4363 100.683 47.6287 100.683 47.8852C100.683 48.1353 100.605 48.3244 100.452 48.4568C100.3 48.5861 100.075 48.6514 99.7752 48.6514H95.4874C95.1047 48.6514 94.8393 48.5605 94.6927 48.3767C94.5461 48.1926 94.472 47.8464 94.472 47.3401V41.6261C94.472 41.1164 94.5461 40.7702 94.6927 40.5861C94.8393 40.4026 95.1047 40.3117 95.4874 40.3117H99.5608C99.8603 40.3117 100.086 40.3726 100.239 40.4985C100.391 40.6229 100.468 40.8064 100.468 41.0482C100.468 41.283 100.391 41.4606 100.239 41.58C100.086 41.702 99.8603 41.762 99.5608 41.762H96.1208V43.5358H99.2123C99.512 43.5358 99.7333 43.5955 99.8833 43.7143C100.031 43.8328 100.107 44.0144 100.107 44.2559C100.107 44.4846 100.03 44.6597 99.8761 44.7806C99.7242 44.9035 99.5044 44.9626 99.2123 44.9626H96.1208V47.1198H99.7752H99.7752ZM104.995 47.7344C104.995 48.0819 104.927 48.3393 104.792 48.5061C104.655 48.6715 104.447 48.755 104.169 48.755C103.882 48.755 103.671 48.6737 103.543 48.5121C103.412 48.3488 103.347 48.0902 103.347 47.7344V41.5051C103.347 40.9974 103.42 40.6526 103.568 40.4706C103.713 40.2872 103.979 40.1954 104.36 40.1954C104.799 40.1954 105.236 40.5746 105.674 41.3341C105.714 41.4015 105.744 41.452 105.762 41.487L108.393 46.0395V41.2147C108.393 40.8682 108.462 40.6117 108.595 40.4453C108.728 40.2785 108.937 40.1954 109.221 40.1954C109.503 40.1954 109.71 40.2764 109.844 40.4409C109.976 40.6055 110.041 40.8641 110.041 41.2147V47.4702C110.041 47.9535 109.974 48.2879 109.84 48.4747C109.707 48.6632 109.472 48.755 109.137 48.755C108.842 48.755 108.612 48.7027 108.442 48.597C108.274 48.4899 108.07 48.2312 107.832 47.8199L104.995 42.9202V47.7344ZM113.31 41.7961C113.036 41.7961 112.829 41.7359 112.696 41.6144C112.562 41.4947 112.496 41.3109 112.496 41.065C112.496 40.8193 112.564 40.6346 112.702 40.5116C112.839 40.3857 113.042 40.3234 113.31 40.3234H118.364C118.635 40.3234 118.839 40.3857 118.976 40.5116C119.111 40.6346 119.178 40.8193 119.178 41.065C119.178 41.3074 119.111 41.4894 118.976 41.6123C118.839 41.7341 118.635 41.7961 118.364 41.7961H116.672V47.8422C116.672 48.1481 116.602 48.3788 116.465 48.5305C116.328 48.6802 116.118 48.755 115.84 48.755C115.561 48.755 115.351 48.678 115.211 48.5261C115.071 48.3723 115.001 48.1447 115.001 47.8422V41.7961H113.31H113.31ZM123.299 41.7489V43.9534H125.263C125.691 43.9534 126.004 43.8651 126.205 43.6887C126.406 43.5121 126.505 43.2324 126.505 42.8518C126.505 42.4909 126.407 42.216 126.21 42.0298C126.014 41.843 125.725 41.7489 125.341 41.7489H123.299ZM123.299 47.8422C123.299 48.1481 123.23 48.3767 123.092 48.5305C122.955 48.6802 122.744 48.755 122.462 48.755C122.182 48.755 121.973 48.6781 121.835 48.5261C121.698 48.3723 121.627 48.1448 121.627 47.8422V41.6261C121.627 41.1164 121.701 40.7702 121.848 40.5861C121.996 40.4026 122.261 40.3117 122.642 40.3117H125.569C126.455 40.3117 127.109 40.5054 127.537 40.894C127.963 41.2831 128.176 41.8774 128.176 42.6756C128.176 43.1866 128.073 43.6107 127.864 43.9504C127.657 44.2882 127.359 44.5211 126.969 44.644C127.271 44.7497 127.503 44.9162 127.66 45.1443C127.819 45.3706 127.913 45.6711 127.947 46.0512C127.962 46.205 127.974 46.4095 127.982 46.6583C127.987 46.9072 127.999 47.0774 128.018 47.1693C128.034 47.2674 128.061 47.4084 128.102 47.5955C128.144 47.7837 128.165 47.9152 128.165 47.9898C128.165 48.2282 128.09 48.4173 127.94 48.5561C127.788 48.6972 127.585 48.7681 127.334 48.7681C126.983 48.7681 126.736 48.6653 126.586 48.4581C126.438 48.2508 126.335 47.7258 126.279 46.8784C126.237 46.2094 126.129 45.797 125.962 45.6398C125.794 45.4826 125.498 45.4038 125.072 45.4038H123.299V47.8422H123.299ZM136.493 47.1198C136.796 47.1198 137.022 47.1842 137.175 47.3104C137.325 47.4363 137.401 47.6287 137.401 47.8852C137.401 48.1354 137.323 48.3244 137.171 48.4569C137.018 48.5861 136.792 48.6514 136.493 48.6514H132.205C131.823 48.6514 131.557 48.5605 131.411 48.3767C131.265 48.1926 131.191 47.8464 131.191 47.3401V41.6261C131.191 41.1164 131.265 40.7702 131.411 40.5861C131.557 40.4026 131.823 40.3117 132.205 40.3117H136.279C136.578 40.3117 136.804 40.3726 136.956 40.4985C137.108 40.6229 137.186 40.8064 137.186 41.0482C137.186 41.2831 137.108 41.4606 136.956 41.58C136.804 41.702 136.578 41.762 136.279 41.762H132.84V43.5358H135.931C136.23 43.5358 136.452 43.5955 136.601 43.7143C136.749 43.8328 136.824 44.0145 136.824 44.256C136.824 44.4846 136.747 44.6597 136.594 44.7806C136.441 44.9035 136.222 44.9626 135.931 44.9626H132.84V47.1198H136.493ZM145.868 41.9992C145.868 42.2309 145.799 42.4147 145.664 42.5518C145.527 42.6894 145.349 42.7591 145.123 42.7591C144.832 42.7591 144.552 42.5771 144.28 42.2118C144.21 42.1221 144.157 42.0527 144.12 42.0033C143.976 41.8303 143.796 41.6997 143.577 41.6123C143.357 41.5256 143.098 41.4829 142.796 41.4829C142.365 41.4829 142.027 41.5726 141.788 41.7468C141.549 41.9262 141.43 42.1753 141.43 42.4936C141.43 42.9328 141.893 43.2624 142.819 43.4848C143.043 43.5399 143.216 43.5851 143.337 43.6128C143.919 43.7624 144.343 43.8821 144.612 43.9742C144.884 44.0658 145.114 44.1683 145.305 44.2761C145.642 44.4742 145.892 44.7293 146.054 45.0428C146.216 45.3555 146.296 45.7385 146.296 46.1924C146.296 47.0195 146.012 47.6754 145.446 48.1576C144.877 48.6416 144.101 48.8835 143.117 48.8835C142.592 48.8835 142.139 48.8256 141.756 48.7069C141.373 48.5914 141.003 48.4025 140.642 48.1404C140.399 47.9598 140.206 47.7428 140.06 47.4919C139.916 47.2395 139.844 46.9969 139.844 46.7588C139.844 46.5088 139.914 46.3059 140.053 46.1497C140.193 45.9938 140.375 45.9136 140.599 45.9136C140.893 45.9136 141.164 46.1114 141.414 46.5033C141.51 46.6542 141.586 46.7683 141.646 46.8442C141.807 47.0483 142.007 47.199 142.244 47.2974C142.48 47.3957 142.763 47.4446 143.089 47.4446C143.609 47.4446 144 47.3549 144.262 47.1712C144.527 46.9898 144.659 46.7244 144.659 46.3677C144.659 45.8697 143.978 45.4591 142.616 45.1387C142.566 45.1281 142.529 45.1173 142.5 45.1108C141.449 44.864 140.739 44.5596 140.369 44.1911C140 43.8254 139.816 43.2921 139.816 42.5945C139.816 41.8056 140.086 41.1909 140.627 40.751C141.167 40.3117 141.922 40.0905 142.891 40.0905C143.337 40.0905 143.74 40.144 144.105 40.2489C144.468 40.3504 144.798 40.5116 145.09 40.7254C145.322 40.892 145.51 41.095 145.653 41.3323C145.796 41.5705 145.868 41.7917 145.868 41.9992"/>
  </g>
</svg>